# xmcd
#
# Track frame offsets:
#	150
#	13969
#	30080
#	44106
#	60255
#	78696
#	114562
#	130266
#	145122
#	158852
#
# Disc length: 2214 seconds
#
# Revision: 1
# Processed by: cddbd v1.5.1PL0 Copyright (c) Steve Scherf et al.
# Submitted via: EasyCDDAExtractor 7.0.6.1
#
DISCID=8108a40a
DTITLE=Various Artist - The Blues - From Yesterday's Masters to Today's Cutti
DTITLE=ng Edge
DYEAR=1900
DGENRE=Blues
TTITLE0=Rev. Gary Davis - Cross And Evil Woman
TTITLE1=Michael Bloomfield - Memphis Road Blues
TTITLE2=Duke Robillard - Sayin' Don't Make it So
TTITLE3=Debbie Davis - I just Want to Make Love to You
TTITLE4=Anders Osborne - Boxes, Bills and Pain
TTITLE5=Pinetop Perkins - Hoochie Coochie Man
TTITLE6=Sue Foley - Every Road I Take
TTITLE7=Curtis Salgado - Cookie Dough
TTITLE8=Otis Taylor - Stone Pony
TTITLE9=Stefan Grossman - Love, Devils and the Blues
EXTD=
EXTT0=
EXTT1=
EXTT2=
EXTT3=
EXTT4=
EXTT5=
EXTT6=
EXTT7=
EXTT8=
EXTT9=
PLAYORDER=
